<?xml version="1.0" encoding="UTF-8" standalone="no"?>
<svg
   width="22"
   height="22"
   version="1.1"
   id="svg1"
   sodipodi:docname="click.svg"
   inkscape:version="1.4.3 (0d15f75042, 2025-12-25)"
   xmlns:inkscape="http://www.inkscape.org/namespaces/inkscape"
   xmlns:sodipodi="http://sodipodi.sourceforge.net/DTD/sodipodi-0.dtd"
   xmlns="http://www.w3.org/2000/svg"
   xmlns:svg="http://www.w3.org/2000/svg">
  <sodipodi:namedview
     id="namedview1"
     pagecolor="#ffffff"
     bordercolor="#000000"
     borderopacity="0.25"
     inkscape:showpageshadow="2"
     inkscape:pageopacity="0.0"
     inkscape:pagecheckerboard="0"
     inkscape:deskcolor="#d1d1d1"
     inkscape:zoom="7.2407734"
     inkscape:cx="11.808131"
     inkscape:cy="9.045995"
     inkscape:window-width="1216"
     inkscape:window-height="490"
     inkscape:window-x="0"
     inkscape:window-y="0"
     inkscape:window-maximized="0"
     inkscape:current-layer="g9" />
  <defs
     id="defs1">
    <style
       id="current-color-scheme"
       type="text/css">
   .ColorScheme-Text { color:#dfdfdf; } .ColorScheme-Highlight { color:#4285f4; } .ColorScheme-NeutralText { color:#ff9800; } .ColorScheme-PositiveText { color:#4caf50; } .ColorScheme-NegativeText { color:#f44336; }
  </style>
  </defs>
  <g
     id="g9"
     transform="translate(-3.1542418,-24.894602)">
    <path
       style="color:#000000;opacity:0"
       d="m 11.034242,43.264602 q -1.4600004,-0.63 -2.5400004,-1.71 -1.08,-1.08 -1.71,-2.54 -0.63,-1.46 -0.63,-3.12 0,-1.66 0.63,-3.12 0.63,-1.46 1.71,-2.54 1.08,-1.08 2.5400004,-1.71 1.46,-0.63 3.12,-0.63 1.66,0 3.12,0.63 1.46,0.63 2.54,1.71 1.08,1.08 1.71,2.54 0.63,1.46 0.63,3.12 0,1.66 -0.63,3.12 -0.63,1.46 -1.71,2.54 -1.08,1.08 -2.54,1.71 -1.46,0.63 -3.12,0.63 -1.66,0 -3.12,-0.63 z"
       id="path7" />
    <path
       id="path1-2"
       style="fill:currentColor"
       d="m 14.154242,38.294602 q -1,0 -1.7,-0.7 -0.7,-0.7 -0.7,-1.7 0,-1 0.7,-1.7 0.7,-0.7 1.7,-0.7 1,0 1.7,0.7 0.7,0.7 0.7,1.7 0,1 -0.7,1.7 -0.7,0.7 -1.7,0.7 z m 2.83,0.43 q 1.17,-1.17 1.17,-2.83 0,-1.66 -1.17,-2.83 -1.17,-1.17 -2.83,-1.17 -1.66,0 -2.83,1.17 -1.17,1.17 -1.17,2.83 0,1.66 1.17,2.83 1.17,1.17 2.83,1.17 1.66,0 2.83,-1.17 z m -2.83,-2.83 z"
       class="ColorScheme-Text" />
  </g>
</svg>
