<?xml version="1.0" encoding="UTF-8" standalone="no"?>
<svg
   width="22"
   height="22"
   version="1.1"
   id="svg1"
   sodipodi:docname="template.svg"
   inkscape:version="1.4.3 (0d15f75042, 2025-12-25)"
   xmlns:inkscape="http://www.inkscape.org/namespaces/inkscape"
   xmlns:sodipodi="http://sodipodi.sourceforge.net/DTD/sodipodi-0.dtd"
   xmlns="http://www.w3.org/2000/svg"
   xmlns:svg="http://www.w3.org/2000/svg">
  <sodipodi:namedview
     id="namedview1"
     pagecolor="#ffffff"
     bordercolor="#000000"
     borderopacity="0.25"
     inkscape:showpageshadow="2"
     inkscape:pageopacity="0.0"
     inkscape:pagecheckerboard="0"
     inkscape:deskcolor="#d1d1d1"
     inkscape:zoom="4.4204545"
     inkscape:cx="11.197944"
     inkscape:cy="21.604113"
     inkscape:window-width="1078"
     inkscape:window-height="490"
     inkscape:window-x="0"
     inkscape:window-y="0"
     inkscape:window-maximized="0"
     inkscape:current-layer="svg1" />
  <defs
     id="defs1">
    <style
       id="current-color-scheme"
       type="text/css">
   .ColorScheme-Text { color:#dfdfdf; } .ColorScheme-Highlight { color:#4285f4; } .ColorScheme-NeutralText { color:#ff9800; } .ColorScheme-PositiveText { color:#4caf50; } .ColorScheme-NegativeText { color:#f44336; }
  </style>
  </defs>
  <path
     style="fill:currentColor"
     class="ColorScheme-Text"
     d="M 11,13.4 Q 10,13.4 9.3,12.7 8.6,12 8.6,11 8.6,10 9.3,9.3 10,8.6 11,8.6 q 1,0 1.7,0.7 0.7,0.7 0.7,1.7 0,1 -0.7,1.7 Q 12,13.4 11,13.4 Z M 7.88,18.37 Q 6.42,17.74 5.34,16.66 4.26,15.58 3.63,14.12 3,12.66 3,11 3,9.34 3.63,7.88 4.26,6.42 5.34,5.34 6.42,4.26 7.88,3.63 9.34,3 11,3 q 1.66,0 3.12,0.63 1.46,0.63 2.54,1.71 1.08,1.08 1.71,2.54 Q 19,9.34 19,11 q 0,1.66 -0.63,3.12 -0.63,1.46 -1.71,2.54 -1.08,1.08 -2.54,1.71 Q 12.66,19 11,19 9.34,19 7.88,18.37 Z M 11,17.4 q 2.66,0 4.53,-1.87 Q 17.4,13.66 17.4,11 17.4,8.34 15.53,6.47 13.66,4.6 11,4.6 8.34,4.6 6.47,6.47 4.6,8.34 4.6,11 4.6,13.66 6.47,15.53 8.34,17.4 11,17.4 Z M 11,11 Z m 2.83,2.83 Q 15,12.66 15,11 15,9.34 13.83,8.17 12.66,7 11,7 9.34,7 8.17,8.17 7,9.34 7,11 7,12.66 8.17,13.83 9.34,15 11,15 q 1.66,0 2.83,-1.17 z"
     id="path1" />
</svg>
